<?xml version="1.0" ?><!DOCTYPE svg  PUBLIC '-//W3C//DTD SVG 1.1//EN'  'http://www.w3.org/Graphics/SVG/1.1/DTD/svg11.dtd'><svg height="2048px" style="shape-rendering:geometricPrecision; text-rendering:geometricPrecision; image-rendering:optimizeQuality; fill-rule:evenodd; clip-rule:evenodd" viewBox="0 0 2048 2048" width="2048px" xml:space="preserve" xmlns="http://www.w3.org/2000/svg" xmlns:xlink="http://www.w3.org/1999/xlink"><defs><style type="text/css">
   <![CDATA[
    .fil3 {fill:none}
    .fil1 {fill:#E76261}
    .fil2 {fill:#FFFFFE}
    .fil0 {fill:#333333;fill-rule:nonzero}
   ]]>
  </style></defs><g id="Layer_x0020_1"><g id="_505336896"><path class="fil0" d="M850.12 1226.17c70.3713,-36.4559 140.498,-72.8032 210.623,-109.159 68.8217,-35.6799 137.647,-71.3741 206.703,-107.19 -76.5178,-39.9544 -152.617,-79.6631 -228.634,-119.329 -62.8843,-32.8134 -125.718,-65.6032 -188.691,-98.4768l0 434.155zm225.247 -80.7839c-77.8654,40.3689 -155.733,80.7272 -233.935,121.236l-23.3126 12.0756 0 -26.263 0 -486.747 0 -26.3292 23.3752 12.2043c70.8036,36.9674 141.403,73.8071 212.066,110.68 85.0087,44.3575 170.118,88.7694 255.803,133.518l27.1677 14.1886 -27.2303 14.1236c-78.202,40.5614 -156.07,80.9457 -233.934,121.313z" id="_505321152"/><path class="fil0" d="M1749.84 1375.53c-9.81379,42.3449 -32.0103,79.1694 -62.178,106.574 -30.3425,27.5622 -68.7497,45.6378 -110.763,50.289 -91.5001,10.2343 -183.776,15.3862 -276.356,17.9681 -91.9855,2.56536 -184.361,2.56536 -276.579,2.51221 -92.1768,0.0531496 -184.553,0.0531496 -276.552,-2.51221 -92.5926,-2.58189 -184.896,-7.73386 -276.407,-17.9681 -42.0213,-4.65118 -80.4367,-22.7327 -110.766,-50.3032 -30.1524,-27.4075 -52.3182,-64.2284 -62.0682,-106.56 -13.0913,-56.7296 -19.6299,-115.906 -22.8921,-175.426 -3.27756,-59.8335 -3.27874,-118.798 -3.27874,-176.039 0,-57.3166 0.0838583,-116.358 3.44055,-176.156 3.3437,-59.5453 9.96261,-118.725 23.0469,-175.445 9.69213,-42.3142 31.8473,-79.1245 62.002,-106.533 30.3473,-27.5858 68.8004,-45.678 110.834,-50.3292 91.4989,-10.2354 183.802,-15.3874 276.395,-17.9705 91.9997,-2.56536 184.376,-2.56536 276.54,-2.51221 92.1768,-0.0531496 184.559,-0.0531496 276.547,2.51221 92.582,2.58307 184.858,7.73505 276.305,17.9705 42.0733,4.64882 80.543,22.7327 110.919,50.3067 30.1878,27.4051 52.3784,64.2225 62.1284,106.556 25.7847,112.206 25.7847,233.848 25.7823,348.698l0.0625985 0 0 2.90197 -0.0625985 0c0.00472441,57.8044 -0.022441,117.346 -3.25276,176.039 -3.27402,59.517 -9.81379,118.694 -22.8473,175.426zm-83.6788 82.9501c25.4988,-23.1638 44.2607,-54.2882 52.5544,-90.0745 12.5835,-54.7737 18.913,-112.184 22.0961,-170.052 3.22914,-58.689 3.2563,-117.349 3.25276,-174.288l-0.0625985 0 0 -2.90197 0.0625985 0c0.0011811,-112.978 0.00236221,-232.637 -25.0311,-341.574 -8.24056,-35.7792 -26.9941,-66.8977 -52.5048,-90.0556 -25.4764,-23.126 -57.7052,-38.289 -92.9186,-42.1807 -90.9839,-10.1847 -182.302,-15.2965 -273.678,-17.8453 -91.9701,-2.56418 -183.928,-2.56418 -275.673,-2.51221 -91.7316,-0.0519685 -183.684,-0.0519685 -275.666,2.51221 -91.3855,2.54882 -182.731,7.66182 -273.768,17.8453 -35.1673,3.89174 -67.376,19.063 -92.8335,42.2032 -25.4669,23.1484 -44.1839,54.2575 -52.3784,90.0331 -12.639,54.7878 -19.0453,112.195 -22.2957,170.071 -3.23504,57.6225 -3.31536,116.849 -3.31536,174.405 0,57.5032 0,116.739 3.15355,174.288 3.17126,57.8646 9.49961,115.273 22.141,170.052 8.24174,35.7874 26.9717,66.906 52.4445,90.0603 25.4398,23.126 57.613,38.2855 92.7662,42.1772 91.0477,10.1835 182.393,15.2953 273.78,17.8429 91.9808,2.56418 183.933,2.56418 275.678,2.51221 91.7859,0.0519685 183.737,0.0519685 275.705,-2.51221 91.3737,-2.54764 182.692,-7.66064 273.729,-17.8429 35.1473,-3.89174 67.3146,-19.0465 92.7627,-42.163z" id="_505321080"/></g><path class="fil1" d="M1666.16 1458.48c25.4988,-23.1638 44.2607,-54.2882 52.5544,-90.0745 12.5835,-54.7737 18.913,-112.184 22.0961,-170.052 3.22914,-58.689 3.2563,-117.349 3.25276,-174.288l-0.0625985 0 0 -2.90197 0.0625985 0c0.0011811,-112.978 0.00236221,-232.637 -25.0311,-341.574 -8.24056,-35.7792 -26.9941,-66.8977 -52.5048,-90.0556 -25.4764,-23.126 -57.7052,-38.289 -92.9186,-42.1807 -90.9839,-10.1847 -182.302,-15.2965 -273.678,-17.8453 -91.9701,-2.56418 -183.928,-2.56418 -275.673,-2.51221 -91.7316,-0.0519685 -183.684,-0.0519685 -275.666,2.51221 -91.3855,2.54882 -182.731,7.66182 -273.768,17.8453 -35.1673,3.89174 -67.376,19.063 -92.8335,42.2032 -25.4669,23.1484 -44.1839,54.2575 -52.3784,90.0331 -12.639,54.7878 -19.0453,112.195 -22.2957,170.071 -3.23504,57.6225 -3.31536,116.849 -3.31536,174.405 0,57.5032 0,116.739 3.15355,174.288 3.17126,57.8646 9.49961,115.273 22.141,170.052 8.24174,35.7874 26.9717,66.906 52.4445,90.0603 25.4398,23.126 57.613,38.2855 92.7662,42.1772 91.0477,10.1835 182.393,15.2953 273.78,17.8429 91.9808,2.56418 183.933,2.56418 275.678,2.51221 91.7859,0.0519685 183.737,0.0519685 275.705,-2.51221 91.3737,-2.54764 182.692,-7.66064 273.729,-17.8429 35.1473,-3.89174 67.3146,-19.0465 92.7627,-42.163zm-612.596 -596.241c85.0087,44.3575 170.118,88.7694 255.803,133.518l27.1677 14.1886 -27.2303 14.1236 -233.934 121.313c-77.8654,40.3689 -155.733,80.7272 -233.935,121.236l-23.3126 12.0756 0 -26.263 0 -486.747 0 -26.3292 23.3752 12.2043c70.8036,36.9674 141.403,73.8071 212.066,110.68z"/><path class="fil2" d="M1060.74 1117.01l206.703 -107.19c-76.5178,-39.9544 -152.617,-79.6631 -228.634,-119.329l-188.691 -98.4768 0 434.155c70.3713,-36.4559 140.498,-72.8032 210.623,-109.159z"/></g><rect class="fil3" height="2048" width="2048"/></svg>